<?xml version="1.0" encoding="UTF-8"?>
<svg xmlns="http://www.w3.org/2000/svg" width="1024" height="1024" viewBox="0 0 1024 1024">
  <path d="M 610.00 667.50 L 597.00 666.50 L 589.50 661.00 L 584.50 640.00 L 580.50 636.00 L 577.50 573.00 L 579.50 558.00 L 566.00 561.50 L 553.50 561.00 L 559.00 557.50 L 533.00 558.50 L 542.50 553.00 L 522.00 551.50 L 510.50 548.00 L 516.00 543.50 L 500.00 542.50 L 470.00 533.50 L 466.50 530.00 L 466.00 517.50 L 458.50 542.00 L 446.00 556.50 L 396.00 583.50 L 369.50 605.00 L 361.50 632.00 L 361.50 644.00 L 367.50 654.00 L 360.00 657.50 L 344.00 654.50 L 340.50 645.00 L 350.50 585.00 L 384.50 551.00 L 398.50 488.00 L 366.00 524.50 L 349.00 532.50 L 344.50 532.00 L 354.00 520.50 L 338.00 529.50 L 310.00 530.50 L 318.50 523.00 L 304.00 522.50 L 288.00 514.50 L 286.00 511.50 L 297.50 511.00 L 284.00 504.50 L 269.50 489.00 L 294.00 487.50 L 321.00 479.50 L 369.00 471.50 L 427.00 443.50 L 449.00 437.50 L 473.00 435.50 L 535.00 439.50 L 589.00 426.50 L 594.50 423.00 L 589.00 418.50 L 602.00 412.50 L 620.50 396.00 L 612.50 396.00 L 629.50 376.00 L 616.00 371.50 L 610.00 361.50 L 636.00 359.50 L 630.00 348.50 L 651.00 348.50 L 678.00 335.50 L 701.00 337.50 L 733.00 322.50 L 737.50 335.00 L 736.50 347.00 L 728.50 362.00 L 714.50 378.00 L 713.50 392.00 L 716.50 404.00 L 708.50 404.00 L 713.50 411.00 L 710.00 413.50 L 703.50 411.00 L 713.50 432.00 L 713.00 436.50 L 704.50 434.00 L 708.50 460.00 L 706.00 462.50 L 700.50 457.00 L 700.50 476.00 L 698.00 480.50 L 692.50 476.00 L 689.00 496.50 L 683.50 489.00 L 684.50 513.00 L 682.00 517.50 L 680.00 511.50 L 674.50 524.00 L 669.00 527.50 L 667.50 522.00 L 661.50 542.00 L 657.50 542.00 L 643.50 589.00 L 639.50 635.00 L 642.50 647.00 L 652.50 656.00 L 646.00 660.50 L 635.00 660.50 L 627.50 656.00 L 617.50 633.00 L 617.50 597.00 L 614.50 581.00 L 615.50 571.00 L 619.50 565.00 L 649.00 546.50 L 619.00 561.50 L 612.50 572.00 L 605.50 614.00 L 604.50 644.00 L 617.50 664.00 L 610.00 667.50 Z" fill="#307122" />
</svg>
