<?xml version="1.0" encoding="UTF-8" standalone="no"?>
<svg
   width="1024"
   height="1024"
   viewBox="0 0 1024 1024"
   version="1.1"
   id="svg1"
   sodipodi:docname="perro-verde-icon.svg"
   inkscape:version="1.4.3 (0d15f75, 2025-12-25)"
   xmlns:inkscape="http://www.inkscape.org/namespaces/inkscape"
   xmlns:sodipodi="http://sodipodi.sourceforge.net/DTD/sodipodi-0.dtd"
   xmlns="http://www.w3.org/2000/svg"
   xmlns:svg="http://www.w3.org/2000/svg">
  <defs
     id="defs1" />
  <sodipodi:namedview
     id="namedview1"
     pagecolor="#ffffff"
     bordercolor="#000000"
     borderopacity="0.25"
     inkscape:showpageshadow="2"
     inkscape:pageopacity="0.0"
     inkscape:pagecheckerboard="0"
     inkscape:deskcolor="#d1d1d1"
     inkscape:zoom="0.36243971"
     inkscape:cx="539.40005"
     inkscape:cy="526.98419"
     inkscape:window-width="944"
     inkscape:window-height="569"
     inkscape:window-x="0"
     inkscape:window-y="33"
     inkscape:window-maximized="0"
     inkscape:current-layer="svg1" />
  <path
     d="m 729.79004,899.26268 -26.94868,-2.1996 -15.54732,-12.0978 -10.36488,-46.19159 -8.2919,-8.7984 -6.21892,-138.57479 4.14594,-32.994 -27.98516,7.69861 -25.9122,-1.0998 11.40138,-7.69861 -53.89736,2.1996 19.69326,-12.09779 -42.496,-3.29941 -23.83922,-7.69859 11.40137,-9.89821 -33.16761,-2.19959 -62.18926,-19.79639 -7.25542,-7.69861 -1.03648,-27.495 -15.54732,53.8902 -25.91218,31.89418 -103.64878,59.38921 -54.93384,47.2914 -16.58381,59.38919 v 26.39519 l 12.43786,21.99601 -15.54731,7.69859 -33.16762,-6.59879 -7.2554,-20.89621 20.72974,-131.97598 70.48116,-74.7864 29.02166,-138.57478 -67.3717,80.28539 -35.24058,17.5968 -9.32839,-1.0998 19.69327,-25.2954 -33.1676,19.7964 -58.04332,2.1996 17.6203,-16.497 -30.058149,-1.0998 -33.167609,-17.5968 -4.145943,-6.59879 23.839207,-1.0998 -27.985164,-14.2974 -30.058141,-34.0938 50.787898,-3.2994 55.970331,-17.5968 99.50281,-17.5968 120.23258,-61.5888 45.60545,-13.19759 49.75142,-4.39921 128.52447,8.79841 111.94067,-28.5948 11.40136,-7.6986 -11.40136,-9.89819 26.94869,-13.1976 38.35004,-36.2934 h -16.58381 l 35.24059,-43.992 -27.98518,-9.8982 -12.43784,-21.996 53.89735,-4.39919 -12.43785,-24.19561 h 43.53248 l 55.97034,-28.59479 47.67844,4.3992 66.3352,-32.994 9.3284,27.495 -2.07298,26.3952 -16.5838,32.994 -29.02166,35.19359 -2.07297,30.79439 6.21893,26.3952 h -16.58381 l 10.36488,15.39721 -7.25541,5.49899 -13.47435,-5.49899 20.72976,46.1916 -1.03649,9.89819 -17.62029,-5.499 8.2919,57.1896 -5.18243,5.49899 -11.40137,-12.0978 v 41.79241 l -5.18245,9.89819 -11.40136,-9.89819 -7.25541,45.09179 -11.40137,-16.497 2.07298,52.79039 -5.18244,9.8982 -4.14595,-13.19759 -11.40137,27.49499 -11.40136,7.6986 -3.10946,-12.0978 -12.43786,43.992 h -8.2919 l -29.02165,103.38119 -8.29191,101.1816 6.21894,26.39519 20.72974,19.7964 -13.47433,9.89819 h -22.80273 l -15.54732,-9.89819 -20.72975,-50.5908 V 744.1909 l -6.21893,-35.1936 2.07298,-21.996 8.2919,-13.1976 61.15277,-40.69259 -62.18925,32.994 -13.47435,23.09578 -14.51083,92.3832 -2.07296,65.98799 26.94867,43.992 z"
     fill="#307122"
     id="path1"
     style="stroke-width:2.13535" />
</svg>
